<?xml version="1.0" encoding="iso-8859-1"?>
<!-- Generator: Adobe Illustrator 19.0.0, SVG Export Plug-In . SVG Version: 6.00 Build 0)  -->
<svg version="1.1" id="Capa_1" xmlns="http://www.w3.org/2000/svg" xmlns:xlink="http://www.w3.org/1999/xlink" x="0px" y="0px"
	 viewBox="0 0 512 512" style="enable-background:new 0 0 512 512;" xml:space="preserve">
<path style="fill:#014059;" d="M256,15l-60,241l60,241c133.101,0,241-107.899,241-241S389.101,15,256,15z"/>
<path style="fill:#4F565B;" d="M15,256c0,133.101,107.899,241,241,241V15C122.899,15,15,122.899,15,256z"/>
<g>
	<path style="fill:#B7C3C8;" d="M376,299.133c0-1.034-0.013-2.065-0.039-3.093c-1.299-77.1-50.998-142.627-119.961-167.439
		l-10,16.156l10,16.156c14.01,6.226,26.909,14.514,38.299,24.487c-12.033-4.063-24.913-6.267-38.299-6.267l-10,15l10,15
		c49.626,0,90,40.374,90,90s-40.374,90-90,90l-10,15l10,15C322.168,419.133,376,365.302,376,299.133z"/>
	<path style="fill:#B7C3C8;" d="M256,0l-20,15l20,15c124.617,0,226,101.383,226,226S380.617,482,256,482l-20,15l20,15
		c141.159,0,256-114.841,256-256S397.159,0,256,0z"/>
</g>
<path style="fill:#D1DEE4;" d="M252.482,481.955c-73.61-1.872-132.916-62.335-132.916-136.388c0-24.943,6.734-48.34,18.471-68.48
	c-1.333,7.149-2.037,14.517-2.037,22.046c0,66.168,53.832,120,120,120v-30c-49.626,0-90-40.374-90-90s40.374-90,90-90v-30
	c-1.034,0-2.065,0.013-3.093,0.039c-90.349,1.656-163.34,75.656-163.34,166.394c0,31.252,8.665,60.516,23.709,85.527
	c-18.204-14.866-34.053-32.507-46.9-52.274c-14.865-23.895-22.706-51.284-22.706-79.686c0-83.353,67.813-151.165,151.165-151.165
	c21.76,0,42.455,4.63,61.165,12.944v-32.313c-19.116-6.878-39.709-10.632-61.165-10.632c-70.353,0-131.466,40.312-161.46,99.049
	C51.9,110.914,144.674,30,256,30V0C114.841,0,0,114.841,0,256c0,50.853,14.908,98.288,40.577,138.171
	c1.637,2.649,3.339,5.266,5.119,7.842l0.102-0.071c45.525,65.37,120.717,108.595,205.911,110.003
	c1.426,0.036,2.856,0.055,4.291,0.055v-30C254.824,482,253.654,481.973,252.482,481.955z"/>
<g>
</g>
<g>
</g>
<g>
</g>
<g>
</g>
<g>
</g>
<g>
</g>
<g>
</g>
<g>
</g>
<g>
</g>
<g>
</g>
<g>
</g>
<g>
</g>
<g>
</g>
<g>
</g>
<g>
</g>
</svg>
